# xmcd
#
# Track frame offsets:
#	150
#	23999
#	44519
#	63944
#	81253
#	106023
#	123749
#	141337
#	160206
#	183824
#	205635
#	226682
#
# Disc length: 3344 seconds
#
# Revision: 991089737
# Processed by: cddbd v1.5.2PL0 Copyright (c) Steve Scherf et al.
# Submitted via: EZCDAudioConverter 8.0.2.1
#
DISCID=990d0e0c
DTITLE=Mai Thiên Vân - Hương Lòng Dâng Mẹ
DYEAR=2007
DGENRE=
TTITLE0=Đền tạ trái tim Mẹ
TTITLE1=Kìa Bà nào
TTITLE2=Mẹ nhân Loại
TTITLE3=Mẹ về trời
TTITLE4=Hương lòng dâng Mẹ
TTITLE5=Ngài là bến đời
TTITLE6=Tấu lạy Bà
TTITLE7=Lời Mẹ nhắn nhủ
TTITLE8=Xin Mẹ thương
TTITLE9=Mẹ vô nhiễm
TTITLE10=Mẹ truyền tin
TTITLE11=Từ lúc Mẹ nói xin lời vâng
EXTD=
EXTT0=
EXTT1=
EXTT2=
EXTT3=
EXTT4=
EXTT5=
EXTT6=
EXTT7=
EXTT8=
EXTT9=
EXTT10=
EXTT11=
PLAYORDER=
